<?xml version="1.0" encoding="UTF-8" standalone="no"?>
<!-- Generator: Adobe Illustrator 18.0.0, SVG Export Plug-In . SVG Version: 6.00 Build 0)  -->

<svg
   xmlns:dc="http://purl.org/dc/elements/1.1/"
   xmlns:cc="http://creativecommons.org/ns#"
   xmlns:rdf="http://www.w3.org/1999/02/22-rdf-syntax-ns#"
   xmlns:svg="http://www.w3.org/2000/svg"
   xmlns="http://www.w3.org/2000/svg"
   xmlns:sodipodi="http://sodipodi.sourceforge.net/DTD/sodipodi-0.dtd"
   xmlns:inkscape="http://www.inkscape.org/namespaces/inkscape"
   version="1.1"
   id="Capa_1"
   x="0px"
   y="0px"
   viewBox="0 0 400.124 400.124"
   style="enable-background:new 0 0 400.124 400.124;"
   xml:space="preserve"
   sodipodi:docname="bass-clef.svg"
   inkscape:version="0.92.4 (5da689c313, 2019-01-14)"><metadata
   id="metadata90"><rdf:RDF><cc:Work
       rdf:about=""><dc:format>image/svg+xml</dc:format><dc:type
         rdf:resource="http://purl.org/dc/dcmitype/StillImage" /></cc:Work></rdf:RDF></metadata><defs
   id="defs88" /><sodipodi:namedview
   pagecolor="#ffffff"
   bordercolor="#666666"
   borderopacity="1"
   objecttolerance="10"
   gridtolerance="10"
   guidetolerance="10"
   inkscape:pageopacity="0"
   inkscape:pageshadow="2"
   inkscape:window-width="1920"
   inkscape:window-height="1057"
   id="namedview86"
   showgrid="false"
   inkscape:zoom="2.2193121"
   inkscape:cx="200.062"
   inkscape:cy="200.062"
   inkscape:window-x="-8"
   inkscape:window-y="-8"
   inkscape:window-maximized="1"
   inkscape:current-layer="Capa_1" />
<g
   id="XMLID_1163_"
   style="fill:#ffffff">
	<path
   id="XMLID_1168_"
   d="M333.266,100.068c17.506,0,31.749-14.243,31.749-31.749S350.772,36.57,333.266,36.57   s-31.749,14.243-31.749,31.749S315.759,100.068,333.266,100.068z M333.266,56.57c6.479,0,11.749,5.271,11.749,11.749   s-5.271,11.749-11.749,11.749c-6.478,0-11.749-5.271-11.749-11.749S326.788,56.57,333.266,56.57z"
   style="fill:#ffffff" />
	<path
   id="XMLID_1231_"
   d="M333.266,146.57c-17.506,0-31.749,14.243-31.749,31.749s14.242,31.749,31.749,31.749   s31.749-14.243,31.749-31.749S350.772,146.57,333.266,146.57z M333.266,190.068c-6.478,0-11.749-5.271-11.749-11.749   s5.271-11.749,11.749-11.749c6.479,0,11.749,5.271,11.749,11.749S339.744,190.068,333.266,190.068z"
   style="fill:#ffffff" />
	<path
   id="XMLID_1234_"
   d="M230.441,23.283C203.265,3.889,170.16-3.763,137.229,1.74c-23.424,3.914-45.115,14.323-62.726,30.101   c-15.707,14.072-44.876,41.496-38.496,81.518c4.473,28.057,31.287,47.012,59.314,42.331c28.023-4.683,47.013-31.292,42.33-59.314   c-4.555-27.261-29.862-45.964-57.03-42.653c15.472-16.793,36.311-28.313,59.903-32.255c27.663-4.623,55.469,1.804,78.298,18.096   s37.947,40.499,42.569,68.161c9.359,56.01-15.41,99.842-58.407,152.409C165.654,305.771,91.157,382.38,90.408,383.149   c-3.852,3.958-3.767,10.289,0.19,14.141c1.944,1.892,4.46,2.834,6.975,2.834c2.604,0,5.206-1.011,7.166-3.024   c0.754-0.774,75.848-77.996,113.727-124.305c36.474-44.591,74.403-98.053,62.653-168.368   C275.616,71.496,257.619,42.678,230.441,23.283z M86.847,73.336c15.118,0,28.506,10.939,31.079,26.334   c2.865,17.146-8.754,33.427-25.9,36.292c-17.146,2.87-33.681-8.713-36.292-25.9C52.127,86.318,69.877,73.336,86.847,73.336z"
   style="fill:#ffffff" />
</g>
<g
   id="g55"
   style="fill:#ffffff">
</g>
<g
   id="g57"
   style="fill:#ffffff">
</g>
<g
   id="g59"
   style="fill:#ffffff">
</g>
<g
   id="g61"
   style="fill:#ffffff">
</g>
<g
   id="g63"
   style="fill:#ffffff">
</g>
<g
   id="g65"
   style="fill:#ffffff">
</g>
<g
   id="g67"
   style="fill:#ffffff">
</g>
<g
   id="g69"
   style="fill:#ffffff">
</g>
<g
   id="g71"
   style="fill:#ffffff">
</g>
<g
   id="g73"
   style="fill:#ffffff">
</g>
<g
   id="g75"
   style="fill:#ffffff">
</g>
<g
   id="g77"
   style="fill:#ffffff">
</g>
<g
   id="g79"
   style="fill:#ffffff">
</g>
<g
   id="g81"
   style="fill:#ffffff">
</g>
<g
   id="g83"
   style="fill:#ffffff">
</g>
</svg>