<?xml version="1.0" encoding="UTF-8" standalone="no"?>
<!-- Generator: Adobe Illustrator 18.0.0, SVG Export Plug-In . SVG Version: 6.00 Build 0)  -->

<svg
   xmlns:dc="http://purl.org/dc/elements/1.1/"
   xmlns:cc="http://creativecommons.org/ns#"
   xmlns:rdf="http://www.w3.org/1999/02/22-rdf-syntax-ns#"
   xmlns:svg="http://www.w3.org/2000/svg"
   xmlns="http://www.w3.org/2000/svg"
   xmlns:sodipodi="http://sodipodi.sourceforge.net/DTD/sodipodi-0.dtd"
   xmlns:inkscape="http://www.inkscape.org/namespaces/inkscape"
   version="1.1"
   id="Capa_1"
   x="0px"
   y="0px"
   viewBox="0 0 444.606 444.606"
   style="enable-background:new 0 0 444.606 444.606;"
   xml:space="preserve"
   sodipodi:docname="eighth-note.svg"
   inkscape:version="0.92.4 (5da689c313, 2019-01-14)"><metadata
   id="metadata84"><rdf:RDF><cc:Work
       rdf:about=""><dc:format>image/svg+xml</dc:format><dc:type
         rdf:resource="http://purl.org/dc/dcmitype/StillImage" /></cc:Work></rdf:RDF></metadata><defs
   id="defs82" /><sodipodi:namedview
   pagecolor="#ffffff"
   bordercolor="#666666"
   borderopacity="1"
   objecttolerance="10"
   gridtolerance="10"
   guidetolerance="10"
   inkscape:pageopacity="0"
   inkscape:pageshadow="2"
   inkscape:window-width="1920"
   inkscape:window-height="1057"
   id="namedview80"
   showgrid="false"
   inkscape:zoom="1.997274"
   inkscape:cx="222.30299"
   inkscape:cy="222.30299"
   inkscape:window-x="-8"
   inkscape:window-y="-8"
   inkscape:window-maximized="1"
   inkscape:current-layer="Capa_1" />
<path
   id="XMLID_1333_"
   d="M357.546,130.492c-13.338-25.883-36.53-45.019-55.165-60.394c-8.203-6.768-25.214-19.226-41.198-52.987V10  c0-5.523-4.477-10-10-10c-5.523,0-10,4.477-10,10c0,5.618,0,324.38,0,328.991c-2.632-2.315-5.503-4.52-8.617-6.596  c-17.207-11.471-39.895-17.789-63.883-17.789c-50.053,0-92.5,27.825-92.5,65c0,37.17,42.439,65,92.5,65  c50.053,0,92.5-27.825,92.5-65V56.267c11.369,15.688,19.573,21.918,28.47,29.258c36.274,29.93,81.42,67.179,45.739,138.294  c-2.477,4.936-0.483,10.946,4.454,13.422c4.931,2.475,10.944,0.486,13.422-4.454C371.924,195.604,373.364,161.187,357.546,130.492z   M168.683,424.606c-39.299,0-72.5-20.607-72.5-45s33.201-45,72.5-45s72.5,20.607,72.5,45S207.982,424.606,168.683,424.606z"
   style="fill:#ffffff" />
<g
   id="g49">
</g>
<g
   id="g51">
</g>
<g
   id="g53">
</g>
<g
   id="g55">
</g>
<g
   id="g57">
</g>
<g
   id="g59">
</g>
<g
   id="g61">
</g>
<g
   id="g63">
</g>
<g
   id="g65">
</g>
<g
   id="g67">
</g>
<g
   id="g69">
</g>
<g
   id="g71">
</g>
<g
   id="g73">
</g>
<g
   id="g75">
</g>
<g
   id="g77">
</g>
</svg>